<?xml version="1.0" encoding="UTF-8" standalone="no"?>
<svg width="46" height="20" viewBox="0 0 46 20" fill="none" xmlns="http://www.w3.org/2000/svg">
<path d="M24.4699 0L21.7473 8.8025H3.46328L0 20H25.8784L28.6002 11.2H41.9773L45.4414 0H24.4699Z" fill="white"/>
<path d="M16.7388 15.2992C16.8175 15.2992 16.8592 15.2992 16.901 15.2992C17.2107 15.2992 17.5204 15.2992 17.831 15.2992C17.8482 15.2992 17.8654 15.3 17.8826 15.2992C17.9719 15.2958 17.985 15.2833 17.9997 15.1958C18.0022 15.1783 18.0014 15.1608 18.003 15.1433C18.0309 14.9183 18.0587 14.6933 18.0882 14.4692C18.1194 14.2358 18.1521 14.0033 18.1841 13.77C18.216 13.5367 18.2472 13.3042 18.2783 13.0708C18.3053 12.865 18.3307 12.6583 18.357 12.4525C18.3479 12.4483 18.3389 12.4442 18.3299 12.44C17.8039 13.3825 17.2787 14.325 16.7388 15.2992Z" fill="#C23333"/>
<path d="M23.6408 12.185C23.5548 12.1617 23.4638 12.1475 23.3745 12.145C23.1983 12.1392 23.0214 12.1425 22.8452 12.1433C22.7387 12.1442 22.7379 12.145 22.7018 12.2508C22.497 12.8492 22.293 13.4475 22.089 14.0458C22.0751 14.0858 22.066 14.1267 22.0546 14.1675C22.0759 14.1783 22.0865 14.1883 22.098 14.1892C22.3774 14.1992 22.6568 14.2 22.9337 14.1625C22.9927 14.1542 23.0501 14.1317 23.1058 14.1083C23.3442 14.0108 23.4695 13.8108 23.5556 13.5792C23.6088 13.4358 23.6588 13.2917 23.7063 13.1467C23.767 12.96 23.8309 12.7742 23.8792 12.5842C23.9275 12.3892 23.8333 12.2375 23.6408 12.185Z" fill="#C23333"/>
<path d="M31.7488 3.54833C31.2253 4.48917 30.7017 5.43 30.1692 6.38833C30.229 6.39083 30.2708 6.39417 30.3117 6.395C30.6173 6.39583 30.9221 6.395 31.2277 6.395C31.4227 6.395 31.4178 6.39417 31.4399 6.19417C31.4653 5.95667 31.5014 5.71917 31.5325 5.4825C31.5612 5.2625 31.5907 5.0425 31.6194 4.8225C31.6423 4.65 31.6636 4.4775 31.6865 4.305C31.7152 4.08917 31.7455 3.87417 31.7726 3.6575C31.7767 3.6225 31.7701 3.58667 31.7685 3.55083C31.7619 3.54917 31.7554 3.54833 31.7488 3.54833Z" fill="#C23333"/>
<path d="M24.4699 0L21.7473 8.8025H3.46328L0 20H25.8784L28.6002 11.2H41.9773L45.4414 0H24.4699ZM7.57793 17.7433C7.29936 17.765 7.14369 17.5733 7.14942 17.3542C7.15516 17.1442 7.15024 16.9342 7.15434 16.7242C7.16171 16.3133 7.17073 15.9025 7.17974 15.4917C7.18875 15.0633 7.1994 14.635 7.20842 14.2067C7.20842 14.195 7.20432 14.1833 7.19694 14.1483C7.14615 14.2175 7.10518 14.2708 7.06749 14.3267C6.68896 14.8842 6.31125 15.4425 5.93191 16.0008C5.62138 16.4575 5.31004 16.9142 4.99952 17.3708C4.85859 17.5783 4.67343 17.7217 4.42107 17.7442C4.09826 17.7725 3.93849 17.52 3.98192 17.2758C4.09334 16.6542 4.9479 11.8308 5.00689 11.5092C5.0454 11.3 5.23057 11.1708 5.39771 11.1733C5.53536 11.175 5.673 11.1708 5.81065 11.175C5.85653 11.1758 5.90487 11.1867 5.94829 11.2033C6.03187 11.2358 6.08184 11.3017 6.08266 11.3933C6.08348 11.4583 6.07283 11.5233 6.06054 11.5875C5.95321 12.1258 5.51897 14.2708 5.41 14.805C5.38952 14.9075 5.36412 15.0092 5.34363 15.1117C5.3379 15.1383 5.34281 15.1675 5.34281 15.2258C5.42557 15.1 5.49357 15 5.5583 14.8983C5.86063 14.425 6.16214 13.9517 6.46365 13.4783C6.77253 12.9942 7.08142 12.5092 7.38949 12.025C7.50665 11.84 7.66806 11.72 7.87862 11.6667C8.18669 11.5875 8.46362 11.8017 8.39725 12.1567C8.37349 12.2842 8.23994 14.1342 8.23257 14.2558C8.2211 14.4258 8.21291 14.5958 8.20144 14.7658C8.19406 14.8792 8.18423 14.9917 8.17604 15.105C8.1744 15.135 8.17604 15.165 8.19816 15.2033C8.23913 15.1317 8.28255 15.0608 8.32024 14.9875C8.55457 14.525 9.5779 12.5017 9.85647 11.9533C9.93758 11.7942 10.022 11.6367 10.1006 11.4758C10.2014 11.2708 10.3595 11.1683 10.5857 11.1733C10.7102 11.1758 10.8356 11.1708 10.9601 11.1775C11.092 11.185 11.1813 11.2533 11.1887 11.3658C11.1936 11.4317 8.32679 17.0708 8.18341 17.335C8.05232 17.5733 7.85404 17.7217 7.57793 17.7433ZM13.9228 14.8942C13.6557 14.8983 12.761 14.895 12.5799 14.8958C12.4701 14.8967 12.4693 14.8975 12.4332 15.0008C12.3063 15.3675 11.9285 16.4642 11.8663 16.6458C11.8605 16.6617 11.8589 16.6792 11.8507 16.7125C11.9023 16.715 11.9474 16.7192 11.9924 16.7192C12.4185 16.72 12.8445 16.7183 13.2706 16.7208C13.3345 16.7208 13.3992 16.73 13.4615 16.745C13.5869 16.775 13.6368 16.84 13.6303 16.9683C13.627 17.0283 13.5402 17.3033 13.5123 17.3808C13.4377 17.5883 13.2845 17.68 13.0748 17.6817C12.7176 17.6842 12.3603 17.6825 12.0031 17.6825C11.6025 17.6825 11.2026 17.6833 10.802 17.6817C10.7389 17.6817 10.6725 17.6725 10.6127 17.6533C10.4914 17.615 10.4398 17.5217 10.4701 17.3983C10.4931 17.3058 10.5275 17.2158 10.5586 17.125C10.7299 16.6208 12.4767 11.5167 12.5037 11.4567C12.5709 11.305 12.6864 11.2175 12.8503 11.2C12.8847 11.1967 12.9191 11.1975 12.9535 11.1975C13.7884 11.1975 14.6233 11.1967 15.459 11.1992C15.5262 11.1992 15.5958 11.2117 15.6597 11.2325C15.7433 11.2592 15.7769 11.33 15.7745 11.4175C15.7736 11.4433 15.7753 11.4717 15.7671 11.4958C15.7228 11.6283 15.6819 11.7617 15.6286 11.8908C15.5598 12.0558 15.4295 12.1383 15.2534 12.1417C15.1116 12.1442 13.9924 12.1425 13.5746 12.1442C13.3919 12.145 13.4214 12.1067 13.3517 12.3067C13.2051 12.7267 13.0674 13.15 12.9257 13.5717C12.888 13.6825 12.8486 13.7925 12.7995 13.9325C12.8708 13.9325 13.781 13.9308 14.1899 13.9342C14.2612 13.935 14.3357 13.9475 14.4037 13.9717C14.5029 14.0075 14.5479 14.0975 14.5192 14.2033C14.4807 14.3467 14.4373 14.4892 14.3841 14.6267C14.3013 14.8358 14.1219 14.8908 13.9228 14.8942ZM18.8223 17.3325C18.8019 17.5358 18.6675 17.6708 18.4668 17.68C18.3037 17.6867 18.1398 17.6867 17.976 17.6808C17.7777 17.6742 17.6851 17.5717 17.6941 17.3717C17.699 17.2717 17.8039 16.5308 17.8416 16.2483C17.8039 16.2433 17.7711 16.2358 17.7384 16.2358C17.2738 16.235 16.8084 16.2367 16.3439 16.2333C16.2628 16.2325 16.2185 16.265 16.1817 16.3333C15.9998 16.6708 15.8113 17.0042 15.6335 17.3433C15.5114 17.575 15.3328 17.6942 15.0723 17.6833C14.9781 17.6792 14.7282 17.6833 14.6979 17.68C14.516 17.6592 14.434 17.5183 14.5143 17.35C14.5782 17.2167 14.6561 17.09 14.7306 16.9625C15.0297 16.4467 17.8957 11.4992 17.9588 11.4108C18.0571 11.2717 18.1923 11.1967 18.3652 11.1975C18.6101 11.1983 18.8559 11.1967 19.1009 11.1992C19.1476 11.2 19.1951 11.2075 19.2394 11.2225C19.3508 11.26 19.4188 11.3492 19.4163 11.4683C19.4131 11.6117 18.8412 17.1508 18.8223 17.3325ZM25.059 12.5242C24.9189 12.9375 24.7788 13.3508 24.6346 13.7625C24.5625 13.9692 24.4593 14.16 24.3282 14.3358C24.1357 14.595 23.8792 14.765 23.5908 14.8917C23.5752 14.8983 23.5588 14.9033 23.5416 14.9083C23.4876 14.925 23.4704 14.9592 23.4753 15.0175C23.4949 15.2217 23.5523 16.1792 23.6285 16.4458C23.649 16.5167 23.6768 16.5858 23.7096 16.6517C23.7588 16.7508 23.8464 16.7925 23.9538 16.7933C24.057 16.7942 24.1602 16.7925 24.2635 16.7942C24.4421 16.7967 24.4994 16.87 24.4527 17.0408C24.4142 17.1842 24.3708 17.3258 24.3241 17.4667C24.2741 17.6167 24.1471 17.7067 23.9915 17.7083C23.8669 17.71 23.7416 17.71 23.617 17.7083C23.1443 17.7025 22.851 17.4792 22.683 17.0583C22.5937 16.8342 22.5535 16.5975 22.5224 16.3592C22.4896 16.1075 22.4438 15.3417 22.4216 15.2133C22.3995 15.0867 22.3913 15.0842 22.2717 15.0842C22.125 15.0833 21.9792 15.0833 21.8325 15.0842C21.7252 15.085 21.7244 15.0858 21.6875 15.1925C21.5417 15.6175 21.0435 17.07 20.9378 17.37C20.8674 17.5708 20.7183 17.6792 20.5069 17.6833C20.3651 17.6867 20.2226 17.6842 20.0808 17.6833C20.0595 17.6833 20.0374 17.6833 20.0161 17.6792C19.8596 17.6483 19.7424 17.5583 19.8096 17.3517C19.8801 17.1358 21.7875 11.5783 21.8219 11.4842C21.8874 11.3033 22.0218 11.2017 22.2143 11.2C22.524 11.1967 22.8346 11.1992 23.1443 11.1992C23.1443 11.2 23.1443 11.2008 23.1443 11.2017C23.4368 11.2017 23.7301 11.1933 24.0226 11.2042C24.2774 11.2142 24.5248 11.2717 24.7501 11.4025C24.9681 11.53 25.1049 11.7108 25.1311 11.9742C25.1516 12.165 25.1197 12.3458 25.059 12.5242ZM26.4806 5.99167C26.3519 5.99167 26.3519 5.9925 26.3093 6.11667C26.0701 6.80917 25.8308 7.50167 25.5916 8.19417C25.5588 8.28917 25.5244 8.38333 25.4908 8.4775C25.4236 8.6675 25.2868 8.76583 25.0918 8.775C24.937 8.7825 24.7813 8.78333 24.6272 8.77583C24.3978 8.765 24.2979 8.66 24.3839 8.39583C24.5281 7.95167 26.2872 2.84167 26.3757 2.59083C26.4461 2.39083 26.5756 2.29417 26.7845 2.29333C27.6801 2.29167 29.5227 2.2925 29.5481 2.29667C29.6661 2.31333 29.7341 2.3875 29.7292 2.50833C29.7267 2.58167 29.7103 2.655 29.6923 2.72583C29.6759 2.78917 29.6481 2.84917 29.6259 2.91083C29.5465 3.13583 29.4154 3.23583 29.1802 3.23667C28.6206 3.23917 28.061 3.2375 27.5014 3.2375C27.467 3.2375 27.4326 3.23667 27.3982 3.2375C27.2982 3.24 27.295 3.24167 27.2614 3.34C27.1033 3.8025 26.9459 4.265 26.7878 4.72667C26.7518 4.83333 26.7149 4.93917 26.6674 5.07667C26.7419 5.07667 26.7878 5.07667 26.8337 5.07667C27.2294 5.07667 27.626 5.075 28.0217 5.07833C28.0889 5.07917 28.1577 5.09333 28.2216 5.11417C28.2995 5.14 28.3306 5.205 28.3339 5.2875C28.3396 5.415 28.2831 5.52583 28.2454 5.64083C28.1675 5.87583 28.0119 5.99333 27.7464 5.99167C27.3245 5.98917 26.9025 5.99167 26.4806 5.99167ZM32.8254 2.88833C32.7935 3.17833 32.2576 8.41167 32.2404 8.47833C32.1929 8.6675 32.0831 8.765 31.8938 8.775C31.7267 8.78417 31.5579 8.78417 31.3908 8.775C31.2015 8.765 31.1163 8.67083 31.1286 8.47833C31.1401 8.2875 31.1704 8.0975 31.195 7.9075C31.2138 7.76083 31.2376 7.61417 31.2564 7.4675C31.2613 7.43 31.2392 7.33167 31.1376 7.33167C30.6853 7.33167 30.2339 7.3325 29.7816 7.33C29.7054 7.32917 29.6571 7.3475 29.6178 7.42167C29.4736 7.695 29.3212 7.96417 29.1712 8.23417C29.1139 8.33667 29.0582 8.44 28.9983 8.54167C28.9058 8.69833 28.7583 8.765 28.5887 8.77667C28.4469 8.78667 28.3044 8.78083 28.1626 8.7775C28.1208 8.77667 28.0766 8.76667 28.0373 8.75083C27.9332 8.71 27.8816 8.615 27.9258 8.51C27.9807 8.37833 28.0504 8.25167 28.1208 8.1275C28.4043 7.6325 31.0901 3.0025 31.3342 2.58083C31.4072 2.45583 31.503 2.35917 31.6431 2.31917C31.6964 2.30417 31.7529 2.29583 31.8078 2.295C32.0446 2.2925 32.2814 2.29333 32.5182 2.29417C32.5608 2.29417 32.6058 2.295 32.646 2.3075C32.7853 2.35 32.8557 2.44917 32.8516 2.6025C32.8484 2.6975 32.8352 2.7925 32.8254 2.88833ZM34.0503 8.7775C33.9815 8.77917 33.6972 8.78167 33.6243 8.77667C33.5735 8.77333 33.521 8.76417 33.4743 8.74583C33.3916 8.71333 33.3391 8.65 33.3498 8.55333C33.3572 8.48917 35.3424 2.64833 35.3743 2.5675C35.444 2.39083 35.5734 2.2975 35.761 2.29417C35.92 2.29167 36.0798 2.29333 36.2387 2.29333C36.269 2.29333 36.2993 2.29417 36.328 2.3025C36.4829 2.345 36.5099 2.41833 36.4976 2.52417C36.4902 2.58833 34.5886 8.1675 34.487 8.46C34.4141 8.67083 34.274 8.77333 34.0503 8.7775ZM41.2874 3.50417C41.1661 3.87333 40.7942 4.945 40.718 5.10667C40.5197 5.52833 40.1977 5.8175 39.7733 5.99083C39.6684 6.03333 39.666 6.04333 39.6766 6.155C39.6954 6.35917 39.7094 6.56333 39.7266 6.7675C39.7487 7.0325 39.7528 7.3 39.8282 7.5575C39.8437 7.61167 39.8659 7.66417 39.888 7.71583C39.9388 7.83333 40.0338 7.88417 40.1551 7.88667C40.2624 7.88917 40.3706 7.885 40.4779 7.88833C40.6196 7.89167 40.6868 7.96917 40.6524 8.11C40.6115 8.275 40.5582 8.43667 40.5017 8.5975C40.4582 8.72 40.3575 8.7925 40.2362 8.79667C40.0305 8.80333 39.8233 8.80083 39.6192 8.77917C39.2751 8.7425 39.0506 8.53167 38.9089 8.22167C38.8081 8.00167 38.7581 7.76667 38.727 7.52833C38.695 7.28167 38.6418 6.46333 38.6189 6.30417C38.6025 6.18583 38.5861 6.17833 38.4665 6.1775C38.3157 6.17667 38.1649 6.18 38.0142 6.17667C37.947 6.175 37.9134 6.2025 37.8921 6.26583C37.793 6.55917 37.2842 8.02667 37.131 8.4675C37.0621 8.665 36.9179 8.77167 36.7123 8.77667C36.5615 8.78 36.1912 8.77167 36.1592 8.76083C36.0101 8.70917 35.9569 8.60833 36.0036 8.45417C36.0478 8.3075 37.9609 2.7325 38.0052 2.60917C38.083 2.3925 38.2182 2.29417 38.4435 2.29333C38.736 2.29167 39.8298 2.295 40.0838 2.2925C40.3321 2.29 40.5713 2.33583 40.8015 2.42667C41.0514 2.525 41.2399 2.68917 41.3087 2.96167C41.3529 3.14167 41.3456 3.3275 41.2874 3.50417Z" fill="#C23333"/>
<path d="M39.9085 3.30333C39.8618 3.2825 39.811 3.26583 39.761 3.26167C39.6119 3.24667 39.1145 3.24083 39.0154 3.23667C38.9531 3.23417 38.9204 3.26167 38.9023 3.31917C38.8728 3.415 38.8409 3.51 38.8081 3.605C38.6303 4.12417 38.4517 4.64333 38.2756 5.1625C38.237 5.27667 38.2461 5.28917 38.3706 5.28667C38.5935 5.2825 38.8163 5.27667 39.0392 5.26417C39.2202 5.255 39.38 5.19 39.5127 5.05667C39.6225 4.94667 40.0748 3.65833 40.0723 3.5475C40.0682 3.42917 40.0109 3.35 39.9085 3.30333Z" fill="#C23333"/>
</svg>
