<?xml version="1.0" encoding="UTF-8"?><svg id="Layer_1" data-name="Layer 1" xmlns="http://www.w3.org/2000/svg" xmlns:xlink="http://www.w3.org/1999/xlink" viewBox="0 0 32 32"><defs><style>.cls-1{fill:#93506a;}.cls-2{fill:#3e78b5;}.cls-3{fill:#2285cd;}.cls-4{fill:#389a97;}.cls-5{fill:url(#linear-gradient);}.cls-6{fill:url(#linear-gradient-2);}.cls-7{fill:url(#linear-gradient-3);}.cls-8{fill:url(#linear-gradient-4);}.cls-9{fill:url(#linear-gradient-5);}.cls-10{fill:url(#linear-gradient-6);}</style><linearGradient id="linear-gradient" x1="22.103" y1="21.008" x2="18.24" y2="17.144" gradientTransform="translate(17.873 -11.899) rotate(45)" gradientUnits="userSpaceOnUse"><stop offset="0" stop-color="#389a97"/><stop offset="0.371" stop-color="#2285cd"/><stop offset="1" stop-color="#93506a"/></linearGradient><linearGradient id="linear-gradient-2" x1="24.422" y1="21.083" x2="28.727" y2="16.777" gradientTransform="translate(17.873 -11.899) rotate(45)" gradientUnits="userSpaceOnUse"><stop offset="0.001" stop-color="#389a97"/><stop offset="1" stop-color="#2285cd"/></linearGradient><linearGradient id="linear-gradient-3" x1="28.622" y1="14.362" x2="24.547" y2="10.287" gradientTransform="translate(17.873 -11.899) rotate(45)" gradientUnits="userSpaceOnUse"><stop offset="0" stop-color="#2285cd"/><stop offset="1" stop-color="#3e78b5"/></linearGradient><linearGradient id="linear-gradient-4" x1="18.135" y1="14.205" x2="21.935" y2="10.405" gradientTransform="translate(17.873 -11.899) rotate(45)" gradientUnits="userSpaceOnUse"><stop offset="0" stop-color="#93506a"/><stop offset="1" stop-color="#3e78b5"/></linearGradient><linearGradient id="linear-gradient-5" x1="4.25" y1="8.482" x2="16.155" y2="8.482" gradientUnits="userSpaceOnUse"><stop offset="0" stop-color="#df731f"/><stop offset="0.4" stop-color="#df7b1e"/><stop offset="1" stop-color="#e42b23"/></linearGradient><linearGradient id="linear-gradient-6" x1="5.995" y1="18.561" x2="14.409" y2="26.975" gradientUnits="userSpaceOnUse"><stop offset="0" stop-color="#d0a221"/><stop offset="1" stop-color="#55b452"/></linearGradient></defs><polygon class="cls-1" points="19.253 11.263 18.947 11.569 19.846 12.364 19.984 12.224 19.253 11.263"/><polygon class="cls-2" points="27.591 11.496 27.416 11.321 26.588 12.19 26.713 12.314 27.591 11.496"/><polygon class="cls-3" points="26.57 19.07 27.408 19.929 27.581 19.757 26.662 18.98 26.57 19.07"/><polygon class="cls-4" points="19.866 18.914 20.033 19.08 19.213 19.956 18.972 19.715 19.866 18.914"/><path class="cls-5" d="M19.938,18.987l-.849.849a5.961,5.961,0,0,1,.007-8.422l.849.849A4.755,4.755,0,0,0,19.938,18.987Z"/><path class="cls-6" d="M27.511,19.829a5.961,5.961,0,0,1-8.422.007l.849-.849a4.755,4.755,0,0,0,6.724-.007Z"/><path class="cls-7" d="M27.511,19.829l-.849-.849c.037-.037.074-.074.109-.112a4.754,4.754,0,0,0-.109-6.6l.849-.849A5.959,5.959,0,0,1,27.511,19.829Z"/><path class="cls-8" d="M27.511,11.414l-.849.849a4.753,4.753,0,0,0-6.717,0l-.849-.849A5.959,5.959,0,0,1,27.511,11.414Z"/><path class="cls-9" d="M10.2,14.435a5.953,5.953,0,1,1,5.953-5.953A5.96,5.96,0,0,1,10.2,14.435Zm0-10.7a4.752,4.752,0,1,0,4.753,4.752A4.758,4.758,0,0,0,10.2,3.73Z"/><path class="cls-10" d="M10.2,28.72a5.953,5.953,0,1,1,5.953-5.952A5.959,5.959,0,0,1,10.2,28.72Zm0-10.7a4.752,4.752,0,1,0,4.753,4.752A4.757,4.757,0,0,0,10.2,18.016Z"/></svg>
