<?xml version="1.0" encoding="UTF-8"?><svg id="Layer_1" data-name="Layer 1" xmlns="http://www.w3.org/2000/svg" xmlns:xlink="http://www.w3.org/1999/xlink" viewBox="0 0 32 32"><defs><style>.cls-1{fill:#2085ce;}.cls-2{fill:#58b64a;}.cls-3{fill:#dc9f1c;}.cls-4{fill:#e42922;}.cls-5{fill:url(#linear-gradient);}.cls-6{fill:url(#linear-gradient-2);}.cls-7{fill:url(#linear-gradient-3);}.cls-8{fill:url(#linear-gradient-4);}.cls-9{fill:none;}</style><linearGradient id="linear-gradient" x1="12.785" y1="27.634" x2="5.248" y2="14.58" gradientUnits="userSpaceOnUse"><stop offset="0" stop-color="#dc9f1c"/><stop offset="1" stop-color="#e42922"/></linearGradient><linearGradient id="linear-gradient-2" x1="17.087" y1="26.721" x2="26.379" y2="21.356" gradientUnits="userSpaceOnUse"><stop offset="0" stop-color="#dc9f1c"/><stop offset="1" stop-color="#58b64a"/></linearGradient><linearGradient id="linear-gradient-3" x1="28.203" y1="18.095" x2="21.547" y2="6.568" gradientUnits="userSpaceOnUse"><stop offset="0" stop-color="#58b64a"/><stop offset="1" stop-color="#2085ce"/></linearGradient><linearGradient id="linear-gradient-4" x1="5.98" y1="11.228" x2="17.377" y2="4.648" gradientUnits="userSpaceOnUse"><stop offset="0.022" stop-color="#e42922"/><stop offset="1" stop-color="#2085ce"/></linearGradient></defs><path class="cls-1" d="M19.88,4.64l-.56,1.51a9.837,9.837,0,0,1,1.66.73l.77-1.42A11.525,11.525,0,0,0,19.88,4.64Z"/><path class="cls-2" d="M26.2,18.06a10.194,10.194,0,0,1-.68,2.11l1.54.52a12.037,12.037,0,0,0,.67-2.16Z"/><path class="cls-3" d="M15,26.35v1.61c.33.03.66.04,1,.04s.67-.01,1-.04V26.35c-.33.03-.66.05-1,.05S15.33,26.38,15,26.35Z"/><path class="cls-4" d="M4.71,11.92a11.472,11.472,0,0,0-.58,2.36l1.56.39a10.125,10.125,0,0,1,.48-2.06Z"/><path class="cls-5" d="M16,26.4V28A12,12,0,0,1,4,16a11.61,11.61,0,0,1,.42-3.14l1.54.45A9.979,9.979,0,0,0,5.6,16,10.418,10.418,0,0,0,16,26.4Z"/><path class="cls-6" d="M27.46,19.55A11.989,11.989,0,0,1,16,28V26.4a10.428,10.428,0,0,0,9.92-7.29Z"/><path class="cls-7" d="M28,16a11.872,11.872,0,0,1-.54,3.55l-1.54-.44A10.375,10.375,0,0,0,20.03,6.42l.6-1.5A12,12,0,0,1,28,16Z"/><path class="cls-8" d="M20.63,4.92l-.6,1.5A10.22,10.22,0,0,0,16,5.6,10.41,10.41,0,0,0,5.96,13.31l-1.54-.45A12.021,12.021,0,0,1,20.63,4.92Z"/><line class="cls-9" x1="19.88" y1="4.64" x2="19.32" y2="6.15"/><line class="cls-9" x1="21.75" y1="5.46" x2="20.98" y2="6.88"/><line class="cls-9" x1="27.73" y1="18.53" x2="26.2" y2="18.06"/><line class="cls-9" x1="27.06" y1="20.69" x2="25.52" y2="20.17"/><line class="cls-9" x1="6.17" y1="12.61" x2="4.71" y2="11.92"/><line class="cls-9" x1="5.69" y1="14.67" x2="4.13" y2="14.28"/></svg>
