<?xml version="1.0" encoding="utf-8"?>
<svg xmlns="http://www.w3.org/2000/svg" width="242" height="26" viewBox="0 0 242 26">
	<path d="M6.6 16.9c0 1 .2 1.6.6 2.4.4.6 1 1.2 1.6 1.6s1.4.8 2.4.8c.8.2 1.8.2 2.8.2 1.2 0 2-.2 2.8-.4.8-.2 1.4-.4 2-.8.6-.2 1-.6 1.2-1s.4-.8.4-1.2c0-1-.2-1.6-.8-2-.6-.4-1.2-.8-1.8-1-1-.2-2.2-.6-3.6-.8-1.4-.4-3-.6-5.1-1.2-1.2-.2-2.4-.6-3.2-1s-1.4-1-2-1.4c-.4-.6-.8-1.2-1-1.8-.2-.7-.2-1.3-.2-1.9 0-1.2.2-2.2.8-3s1.4-1.6 2.4-2.2 2.2-1 3.4-1.4C10.8.5 12 .3 13.4.3s3 .2 4.3.4c1.4.4 2.6 1 3.6 1.6s1.8 1.4 2.4 2.4.8 2 .8 3.2h-5c0-1.6-.8-2.6-1.8-3.2s-2.6-1-4.5-1c-.6 0-1.2 0-1.8.2-.6 0-1.2.2-1.8.4-.6.4-1 .6-1.2 1-.4.4-.6 1-.6 1.6 0 .8.4 1.4 1 2 .6.4 1.4.8 2.6 1 .2 0 .6.2 1.2.2l2.4.6c1 .2 1.8.4 2.8.6.8.2 1.6.4 1.8.4 1 .2 1.8.6 2.6 1s1.4 1 1.8 1.4.8 1.2 1 1.8c.2.6.4 1.2.4 1.8 0 1.4-.4 2.4-1 3.4s-1.6 1.8-2.6 2.4-2.4 1-3.8 1.4c-1.4.2-2.8.4-4.3.4-1.6 0-3.2-.2-4.9-.4-1.4-.6-2.6-1-3.8-1.8-1-.6-2-1.6-2.6-2.6s-1-2.4-1-3.8h5.2v.2zm88.1 0c0 1 .2 1.6.6 2.4.4.6 1 1.2 1.6 1.6s1.4.8 2.4.8c.8.2 1.8.2 2.8.2 1.2 0 2-.2 2.8-.4.8-.2 1.4-.4 2-.8.4-.4.8-.8 1-1.2.2-.4.4-.8.4-1.4 0-1-.2-1.6-.8-2-.4-.4-1-.8-1.6-1-1-.4-2.2-.6-3.6-.8s-3-.6-5.1-1c-1.2-.2-2.2-.6-3.2-1-.8-.4-1.4-1-2-1.4-.4-.6-.8-1.2-1-1.8s-.4-1.2-.4-1.8c0-1.2.4-2.2 1-3.2S93 2.5 94 1.9s2.2-1 3.4-1.2c1.4 0 2.6-.2 4.1-.2 1.6 0 3 .2 4.5.4 1.4.4 2.6.8 3.6 1.4s1.8 1.4 2.4 2.4.8 2 .8 3.2h-5.3c-.2-1.6-.8-2.6-2-3.2s-2.6-1-4.5-1c-.6 0-1.2 0-1.8.2-.6.2-1.2.2-1.8.4-.6.2-1 .6-1.2 1-.4.4-.6.8-.6 1.4 0 .8.4 1.4 1 2 .6.4 1.4.8 2.6 1 .2 0 .6.2 1.2.2.8.2 1.6.4 2.6.6 1 .2 1.8.4 2.8.6.8.2 1.6.4 1.8.4 1 .6 2 1 2.6 1.4s1.4 1 1.8 1.4c.4.6.8 1.2 1 1.8.2.6.4 1.2.4 1.8 0 1.4-.4 2.4-1 3.4s-1.6 1.8-2.6 2.4-2.4 1-3.8 1.4c-1.4.2-2.8.4-4.3.4-1.6 0-3.2-.2-4.9-.4-1.4-.4-2.8-.8-3.8-1.6-1-.6-2-1.6-2.6-2.6s-1-2.4-1-3.8l5.3-.2zM28.8.9h4.9v14c0 .8 0 1.6.2 2.4 0 .8.4 1.6.8 2.2.4.6 1 1.2 2 1.6.8.4 2.2.6 3.6.6 1.6 0 2.8-.2 3.6-.6s1.6-1 2-1.6.6-1.4.8-2.2c0-.8.2-1.6.2-2.4V.9h4.9v15.4c0 1.6-.2 2.8-.8 4.1-.6 1.2-1.4 2-2.4 2.8S46.4 24.6 45 25s-3 .6-4.7.6c-1.8 0-3.2-.2-4.7-.6-1.4-.4-2.6-1-3.6-1.8s-1.8-1.8-2.4-2.8c-.6-1.2-.8-2.4-.8-4.1V.9zm28.8 0h4.9V25h-4.9V.9zm8.3 0h22.7v3.6h-8.9V25h-4.9V4.6h-8.9V.9zm52.3 0h4.9v14c0 .8 0 1.6.2 2.4 0 .8.4 1.6.8 2.2s1 1.2 2 1.6c.8.4 2.2.6 3.6.6s2.8-.2 3.6-.6 1.6-1 2-1.6.6-1.4.8-2.2c0-.8.2-1.6.2-2.4V.9h4.9v15.4c0 1.6-.2 2.8-.8 4.1s-1.4 2-2.4 2.8-2.2 1.4-3.6 1.8-3 .6-4.7.6c-1.8 0-3.2-.2-4.7-.6-1.4-.4-2.6-1-3.6-1.8s-1.8-1.8-2.4-2.8c-.6-1.2-.8-2.4-.8-4.1V.9zm29.7 0h12.4c2 0 3.6.2 4.9.8 1.2.4 2.2 1.2 2.8 1.8s1.2 1.6 1.4 2.4.4 1.6.4 2.4-.2 1.6-.4 2.4-.8 1.6-1.4 2.4c-.6.8-1.6 1.4-2.8 1.8-1.2.4-2.8.8-4.9.8h-7.5V25h-4.9V.9zm4.9 11.3h7.3c.6 0 1.2 0 1.6-.2.6-.2 1.2-.4 1.6-.6.4-.2.8-.8 1.2-1.2.2-.4.4-1.2.4-1.8 0-.8-.2-1.4-.4-2s-.6-1-1-1.2-1-.4-1.6-.6-1.2-.2-1.8-.2h-7.3v7.8zM174.1.9h12.4c2 0 3.6.2 4.9.8s2.2 1.2 2.8 1.8 1.2 1.6 1.4 2.4c.4.8.6 1.6.6 2.4s-.2 1.4-.4 2.2-.8 1.6-1.4 2.4c-.6.8-1.6 1.4-2.8 1.8-1.2.4-2.8.8-4.9.8h-7.5v9.3h-4.9V.9h-.2zm5 11.3h7.3c.6 0 1.2 0 1.6-.2.6-.2 1.2-.4 1.6-.6.4-.2.8-.8 1.2-1.2.2-.4.4-1.2.4-1.8 0-.8-.2-1.4-.4-2s-.6-1-1-1.2-1-.4-1.6-.6-1.2-.2-1.8-.2h-7.3v7.8zM200.4.9h4.9v20.5h14.4V25h-19.2L200.4.9zm24.7 14.6L214.6.9h5.7l7.5 10.7L235.1.9h5.5l-10.5 14.6V25h-4.9v-9.5h-.1z" fill="#2d2e2c"/>
</svg>