<?xml version="1.0" standalone="no"?>
<!DOCTYPE svg PUBLIC "-//W3C//DTD SVG 20010904//EN"
 "http://www.w3.org/TR/2001/REC-SVG-20010904/DTD/svg10.dtd">
<svg version="1.0" xmlns="http://www.w3.org/2000/svg"
 width="1352.000000pt" height="352.000000pt" viewBox="0 0 1352.000000 352.000000"
 preserveAspectRatio="xMidYMid meet">

<g transform="translate(0.000000,352.000000) scale(0.100000,-0.100000)"
fill="#000000" stroke="none">
<path d="M1398 3510 c-362 -28 -666 -197 -786 -439 -41 -83 -54 -180 -32 -245
25 -77 117 -123 223 -112 218 22 417 274 417 527 0 72 -2 79 -20 79 -17 0 -20
-7 -20 -52 -1 -116 -73 -260 -190 -378 -111 -113 -216 -153 -302 -117 -54 23
-73 58 -73 137 0 206 238 422 560 508 158 42 408 46 549 9 l50 -13 -81 -47
c-161 -95 -312 -221 -451 -377 -82 -92 -171 -208 -392 -511 -225 -310 -363
-400 -566 -370 -79 12 -164 43 -164 60 0 5 16 15 35 21 52 17 75 53 75 114 0
58 -17 89 -60 111 -83 43 -160 -20 -160 -129 0 -63 20 -106 68 -147 53 -45
121 -69 228 -79 215 -19 370 32 564 188 129 103 219 206 490 567 204 272 277
359 399 479 l92 89 29 -28 c76 -73 93 -223 37 -337 -33 -68 -105 -151 -145
-167 -26 -11 -34 -9 -77 18 -108 69 -265 62 -265 -11 0 -63 67 -97 192 -98 99
0 105 -6 93 -83 -23 -152 -130 -346 -252 -457 -104 -95 -184 -114 -247 -59
-116 101 5 316 232 414 45 19 47 22 33 44 -8 13 -24 8 -93 -26 -272 -136 -353
-430 -143 -519 41 -17 161 -23 204 -9 l22 7 -22 -43 c-26 -53 -30 -131 -7
-174 40 -75 139 -135 236 -143 41 -4 52 -8 48 -19 -3 -8 -38 -61 -76 -118
-113 -165 -192 -224 -298 -225 -30 0 -69 7 -88 16 l-34 16 33 22 c65 44 40
140 -38 140 -47 0 -75 -31 -75 -83 0 -56 32 -99 97 -128 49 -23 64 -25 135
-20 171 11 357 146 510 366 28 41 42 52 88 66 132 41 315 149 383 224 143 159
79 290 -108 220 -123 -46 -345 -230 -446 -369 l-44 -62 -65 5 c-78 5 -139 33
-172 79 -18 26 -23 46 -23 94 0 83 35 136 112 171 50 23 64 25 148 21 71 -4
105 -11 149 -31 50 -23 58 -24 63 -10 12 31 -95 73 -204 80 l-82 6 46 51 c59
65 108 167 124 258 17 94 2 202 -35 258 -19 29 -23 42 -14 45 229 80 323 170
336 320 9 120 -53 237 -158 296 -22 12 -37 26 -35 30 5 6 51 18 133 34 27 6
33 11 30 28 -3 19 -8 22 -43 19 -22 -2 -75 -15 -118 -29 -74 -23 -80 -23 -125
-9 -102 33 -278 48 -434 36z m209 -655 c28 -8 57 -22 64 -31 12 -15 5 -16 -73
-13 -64 3 -92 8 -104 21 -38 38 22 50 113 23z m791 -728 c6 -68 -65 -149 -200
-229 -69 -41 -219 -110 -226 -103 -5 5 191 266 224 297 52 48 115 79 159 76
39 -3 40 -4 43 -41z"/>
<path d="M3860 2971 c-79 -24 -160 -101 -210 -201 -116 -230 -100 -590 36
-790 53 -77 89 -108 158 -132 64 -22 89 -22 156 -2 107 32 211 173 256 349 24
97 25 332 1 430 -38 151 -134 292 -229 335 -44 20 -121 25 -168 11z m141 -94
c46 -31 85 -98 110 -192 19 -70 22 -106 22 -280 1 -175 -2 -210 -21 -279 -35
-127 -84 -194 -155 -211 -100 -25 -182 65 -223 245 -27 117 -24 418 5 525 38
142 102 215 186 215 27 0 54 -8 76 -23z"/>
<path d="M6850 2963 c-113 -40 -225 -219 -261 -416 -16 -88 -13 -262 6 -343
25 -110 85 -223 150 -282 68 -63 132 -86 235 -86 78 0 151 25 221 74 l29 21 0
208 c0 234 6 266 51 276 22 5 29 12 29 31 l0 24 -146 0 -145 0 3 -27 c2 -22 9
-29 30 -31 50 -6 53 -18 53 -246 l0 -210 -40 -24 c-56 -32 -138 -27 -190 12
-80 61 -135 195 -155 376 -12 111 -8 193 17 309 38 184 113 274 228 274 105 0
173 -76 215 -240 8 -33 16 -43 31 -43 17 0 19 5 15 33 -3 17 -8 98 -12 180 -6
135 -8 147 -25 147 -12 0 -19 -7 -19 -19 0 -50 -8 -51 -83 -15 -82 39 -158 44
-237 17z"/>
<path d="M7745 2968 c-2 -7 -63 -226 -135 -486 -72 -260 -136 -485 -142 -500
-15 -35 -48 -72 -65 -72 -7 0 -13 -11 -13 -25 l0 -25 121 0 c117 0 120 1 117
21 -2 14 -15 25 -38 33 -32 10 -35 14 -38 56 -1 27 9 85 26 145 l29 100 129 0
129 0 26 -95 c30 -103 36 -179 17 -198 -7 -7 -22 -12 -35 -12 -18 0 -23 -6
-23 -25 l0 -25 150 0 150 0 0 24 c0 18 -7 25 -30 30 -23 4 -35 16 -51 49 -12
24 -80 262 -153 528 -105 389 -135 484 -149 487 -9 2 -19 -2 -22 -10z m49
-484 c25 -94 46 -174 46 -178 0 -3 -48 -6 -106 -6 -81 0 -105 3 -101 13 2 6
26 90 52 185 27 95 52 169 55 165 4 -5 28 -85 54 -179z"/>
<path d="M2770 2936 c0 -22 4 -26 29 -26 20 0 36 -9 50 -26 21 -26 21 -37 21
-478 0 -505 1 -496 -66 -496 -30 0 -34 -3 -34 -25 l0 -25 213 0 c242 0 291 9
346 62 19 18 46 58 60 88 23 48 26 68 26 155 0 122 -23 180 -91 228 l-43 30
25 20 c38 29 74 110 81 180 13 139 -39 249 -142 302 l-58 30 -209 3 -208 4 0
-26z m412 -88 c55 -42 73 -89 73 -188 0 -93 -16 -135 -65 -172 -29 -21 -112
-34 -164 -24 l-36 7 0 199 c0 149 3 200 13 204 6 3 42 4 78 3 54 -2 73 -7 101
-29z m3 -493 c60 -34 88 -91 93 -190 4 -73 1 -85 -25 -134 -43 -82 -120 -111
-231 -86 l-32 7 0 213 0 214 28 4 c50 8 126 -5 167 -28z"/>
<path d="M4410 2819 c0 -128 2 -140 17 -137 13 2 20 17 25 52 15 106 48 136
148 136 l50 0 0 -438 c0 -256 -4 -451 -10 -471 -11 -40 -24 -51 -62 -51 -23 0
-28 -4 -28 -25 l0 -25 160 0 160 0 0 25 c0 22 -4 25 -34 25 -67 0 -66 -10 -66
502 l0 458 55 0 c31 0 69 -7 84 -15 30 -15 61 -76 61 -119 0 -35 10 -56 26
-56 11 0 14 27 14 140 l0 140 -300 0 -300 0 0 -141z"/>
<path d="M5130 2819 c0 -126 2 -140 17 -137 11 2 20 22 29 64 7 34 18 71 25
83 17 27 59 41 120 41 l49 0 0 -445 c0 -507 -1 -515 -64 -515 -32 0 -36 -3
-36 -25 l0 -25 160 0 160 0 0 24 c0 21 -5 25 -37 28 -63 5 -63 0 -63 506 l0
452 55 0 c97 0 131 -35 150 -152 4 -24 11 -38 20 -38 12 0 15 24 15 140 l0
140 -300 0 -300 0 0 -141z"/>
<path d="M5840 2935 c0 -20 5 -25 24 -25 13 0 34 -9 47 -19 l24 -19 0 -460 c0
-438 -1 -461 -19 -481 -11 -12 -31 -21 -48 -21 -23 0 -28 -4 -28 -25 l0 -25
280 0 c154 0 280 2 280 5 0 3 14 66 30 140 17 74 30 137 30 140 0 3 -8 5 -18
5 -14 0 -26 -19 -46 -70 -16 -39 -43 -86 -61 -106 l-33 -35 -118 3 -119 3 -3
223 -2 222 95 0 c113 0 130 -11 140 -87 9 -65 12 -73 30 -73 13 0 15 27 15
200 0 189 -1 200 -19 200 -15 0 -19 -10 -23 -56 -7 -85 -26 -98 -143 -102
l-95 -4 0 207 0 207 121 -4 c117 -3 122 -4 144 -30 13 -15 26 -46 30 -70 10
-65 15 -78 31 -78 11 0 14 24 14 130 l0 130 -280 0 -280 0 0 -25z"/>
<path d="M10055 2896 c-43 -20 -80 -62 -111 -131 -24 -51 -28 -72 -27 -145 1
-149 31 -201 205 -357 138 -123 161 -159 161 -248 1 -161 -139 -222 -244 -108
-39 41 -49 66 -68 162 -13 64 -21 87 -34 89 -16 3 -17 -14 -17 -192 0 -189 1
-196 20 -196 13 0 20 7 20 20 0 33 28 35 86 7 108 -53 225 -29 287 60 45 65
60 120 60 218 1 159 -35 216 -240 388 -106 88 -133 131 -133 207 0 62 19 110
55 138 48 38 105 23 163 -42 34 -38 59 -109 69 -193 5 -43 9 -53 24 -53 18 0
19 11 19 195 0 188 -1 195 -20 195 -12 0 -20 -7 -20 -17 -1 -43 -15 -46 -75
-14 -64 34 -128 40 -180 17z"/>
<path d="M10876 2893 c-3 -10 -61 -220 -130 -468 -147 -533 -156 -558 -196
-575 -21 -9 -30 -19 -30 -36 0 -24 0 -24 120 -24 l120 0 0 25 c0 17 -5 25 -18
25 -10 0 -28 7 -40 16 -26 18 -29 57 -8 130 8 27 21 75 30 107 l17 57 128 0
128 0 26 -97 c40 -152 41 -161 23 -188 -9 -14 -25 -25 -36 -25 -15 0 -20 -7
-20 -25 l0 -25 145 0 c144 0 145 0 145 23 0 15 -11 27 -33 37 -19 9 -39 30
-49 50 -9 19 -76 254 -149 523 -111 411 -135 487 -150 487 -10 0 -20 -8 -23
-17z m49 -473 c27 -99 46 -182 43 -185 -3 -3 -50 -4 -105 -3 l-99 3 50 182
c28 101 54 183 57 183 3 0 27 -81 54 -180z"/>
<path d="M13055 2886 c-103 -48 -193 -183 -230 -346 -19 -87 -22 -285 -5 -378
44 -244 171 -392 338 -392 145 0 262 122 324 335 19 68 23 104 23 235 0 176
-9 226 -65 345 -90 194 -237 271 -385 201z m206 -105 c82 -85 114 -237 107
-499 -6 -179 -23 -263 -72 -344 -57 -96 -154 -122 -226 -61 -92 77 -144 329
-121 583 23 253 91 370 215 370 46 0 53 -3 97 -49z"/>
<path d="M11370 2866 c0 -22 4 -26 28 -26 17 0 37 -9 48 -21 18 -20 19 -43 19
-479 0 -436 -1 -459 -19 -479 -11 -12 -31 -21 -48 -21 -23 0 -28 -4 -28 -25
l0 -25 160 0 160 0 0 25 c0 22 -4 25 -34 25 -62 0 -66 17 -66 247 l0 203 28 0
c27 0 33 -11 144 -247 l116 -248 101 -3 c99 -3 101 -2 101 20 -1 17 -12 28
-48 45 -58 27 -81 63 -188 293 -70 151 -75 165 -58 175 10 5 37 27 60 48 58
52 84 122 84 226 0 95 -19 155 -67 211 -58 67 -81 73 -300 78 l-193 4 0 -26z
m336 -72 c125 -59 120 -347 -8 -407 -18 -8 -50 -18 -70 -22 l-38 -7 0 220 c0
202 2 221 18 225 35 9 65 7 98 -9z"/>
<path d="M12100 2755 c0 -128 1 -135 20 -135 14 0 20 7 20 23 0 13 7 47 15 75
19 63 49 82 130 82 l55 0 0 -444 c0 -509 -1 -515 -72 -516 -23 0 -28 -4 -28
-25 l0 -25 160 0 160 0 0 25 c0 21 -5 25 -28 25 -16 0 -37 6 -48 14 -18 14
-19 32 -22 480 l-3 466 66 0 c59 0 70 -3 94 -27 19 -20 31 -46 40 -90 8 -43
17 -63 27 -63 11 0 14 24 14 135 l0 135 -300 0 -300 0 0 -135z"/>
<path d="M8678 2743 c-42 -28 -54 -69 -18 -58 19 6 20 2 20 -72 l0 -79 -40 4
c-55 6 -90 -23 -125 -100 -25 -54 -29 -76 -29 -153 -1 -64 4 -103 17 -137 32
-83 101 -120 155 -82 20 14 22 14 22 0 0 -24 28 -19 81 14 34 23 46 36 42 49
-3 13 -11 17 -24 14 -18 -5 -19 4 -19 311 l0 316 -22 -1 c-13 0 -40 -12 -60
-26z m-13 -283 c11 -22 15 -63 15 -168 0 -126 -2 -141 -20 -157 -83 -75 -142
248 -62 338 23 26 50 21 67 -13z"/>
<path d="M9222 2742 c-44 -28 -52 -57 -17 -57 19 0 20 -8 23 -282 2 -274 2
-283 -18 -295 -11 -7 -20 -21 -20 -30 0 -16 10 -18 80 -18 70 0 80 2 80 18 0
9 -10 22 -22 27 l-23 10 -3 328 c-3 369 2 352 -80 299z"/>
<path d="M8938 2523 c-37 -23 -64 -77 -78 -153 -39 -214 85 -397 195 -287 44
44 75 141 52 164 -13 13 -16 11 -27 -23 -16 -50 -37 -74 -66 -74 -43 0 -94 87
-94 163 l0 27 100 0 c115 0 114 -1 85 97 -27 90 -100 127 -167 86z m71 -59
c12 -15 21 -37 21 -50 0 -22 -4 -24 -55 -24 -43 0 -55 3 -55 15 0 22 27 72 42
78 22 9 26 8 47 -19z"/>
<path d="M9591 1166 c2 -2 49 -6 104 -8 65 -4 86 -3 60 3 -39 8 -172 12 -164
5z"/>
<path d="M5602 1153 c-12 -2 -20 -8 -18 -12 3 -4 -45 -42 -107 -84 -266 -181
-657 -548 -718 -675 -43 -87 7 -122 89 -63 22 16 43 35 47 41 4 6 -14 -5 -40
-24 -25 -20 -58 -36 -72 -36 l-25 0 20 31 c75 119 526 558 818 796 21 18 37
32 34 31 -3 0 -15 -3 -28 -5z"/>
<path d="M5950 1151 c0 -5 -8 -8 -17 -6 -10 1 -12 0 -5 -2 7 -3 -23 -27 -65
-55 -257 -168 -595 -468 -698 -620 -74 -110 -66 -178 20 -178 33 0 68 12 137
48 l93 47 -3 -31 c-5 -38 19 -64 56 -63 l27 1 -29 7 c-16 3 -31 12 -34 19 -10
32 168 170 263 205 l50 18 -47 -5 c-69 -8 -170 -52 -245 -107 -180 -133 -356
-174 -306 -71 47 96 458 501 728 715 55 44 102 81 104 83 2 2 -3 4 -12 4 -9 0
-17 -4 -17 -9z"/>
<path d="M9508 1153 c12 -2 32 -2 45 0 12 2 2 4 -23 4 -25 0 -35 -2 -22 -4z"/>
<path d="M9433 1143 c9 -2 23 -2 30 0 6 3 -1 5 -18 5 -16 0 -22 -2 -12 -5z"/>
<path d="M9698 1143 c7 -3 16 -2 19 1 4 3 -2 6 -13 5 -11 0 -14 -3 -6 -6z"/>
<path d="M9280 1115 c-127 -35 -193 -62 -259 -106 -101 -68 -148 -153 -121
-219 14 -34 64 -74 83 -67 7 4 6 6 -4 6 -32 2 -69 48 -69 86 0 49 20 84 79
137 79 72 219 135 386 176 27 7 32 10 15 10 -14 0 -63 -10 -110 -23z"/>
<path d="M9447 1060 c-129 -65 -216 -129 -324 -237 -57 -57 -108 -103 -114
-103 -5 0 -8 -4 -4 -10 9 -14 -135 -171 -221 -240 -131 -105 -260 -156 -432
-171 l-97 -8 100 4 c268 10 507 127 680 335 43 52 74 80 88 81 18 1 18 2 4 6
-15 4 -13 10 15 46 52 67 179 196 232 235 26 19 76 50 110 68 86 47 57 42 -37
-6z"/>
<path d="M5262 985 c-28 -20 -52 -38 -52 -40 0 -3 25 11 55 31 48 32 62 44 52
44 -1 0 -26 -16 -55 -35z"/>
<path d="M10803 974 c15 -8 27 -19 27 -24 0 -20 -56 -72 -128 -121 -84 -56
-100 -68 -62 -49 85 44 200 142 200 170 0 9 -11 22 -25 28 -37 17 -45 14 -12
-4z"/>
<path d="M10685 956 c-94 -43 -277 -171 -435 -301 -41 -34 -95 -72 -120 -85
-47 -24 -220 -139 -220 -147 0 -6 9 0 110 67 47 31 91 60 99 65 8 4 -27 -33
-77 -82 -91 -90 -115 -131 -95 -162 6 -10 25 -17 49 -17 29 -1 31 -1 9 3 -16
2 -34 8 -39 13 -11 11 86 114 209 222 50 44 110 99 135 123 140 135 336 279
415 307 28 10 41 17 30 18 -11 0 -42 -11 -70 -24z"/>
<path d="M5179 923 c-13 -16 -12 -17 4 -4 9 7 17 15 17 17 0 8 -8 3 -21 -13z"/>
<path d="M9410 871 c-46 -47 -88 -79 -139 -104 -41 -20 -68 -37 -62 -37 27 0
137 65 183 108 41 39 98 104 86 101 -2 0 -32 -31 -68 -68z"/>
<path d="M5139 893 c-13 -16 -12 -17 4 -4 16 13 21 21 13 21 -2 0 -10 -8 -17
-17z"/>
<path d="M5089 853 c-13 -16 -12 -17 4 -4 16 13 21 21 13 21 -2 0 -10 -8 -17
-17z"/>
<path d="M5414 838 l-19 -23 23 19 c12 11 22 21 22 23 0 8 -8 2 -26 -19z"/>
<path d="M5024 798 l-19 -23 23 19 c21 18 27 26 19 26 -2 0 -12 -10 -23 -22z"/>
<path d="M5354 788 l-29 -33 33 29 c17 17 32 31 32 33 0 8 -8 1 -36 -29z"/>
<path d="M10510 721 c-52 -25 -117 -57 -145 -69 -27 -12 -39 -19 -25 -16 32 8
270 121 270 128 0 8 9 11 -100 -43z"/>
<path d="M5195 644 l-120 -116 123 113 c109 101 128 119 120 119 -2 0 -57 -52
-123 -116z"/>
<path d="M4900 683 l-65 -68 68 65 c37 35 67 66 67 67 0 8 -10 -2 -70 -64z"/>
<path d="M9500 685 c-56 -48 -70 -55 -110 -56 -44 -2 -44 -2 -10 -8 l35 -7
-33 -17 c-19 -11 -30 -22 -26 -29 4 -7 3 -8 -4 -4 -10 6 -232 -129 -232 -141
0 -5 1 -5 123 74 53 34 97 61 97 59 0 -2 -41 -38 -91 -81 -97 -82 -128 -129
-109 -165 6 -11 18 -20 28 -20 13 0 14 2 4 9 -8 5 -12 16 -10 24 1 9 77 79
168 156 l165 141 60 1 60 2 -50 6 -49 6 59 52 60 53 -35 -1 c-28 0 -49 -11
-100 -54z"/>
<path d="M9158 723 c6 -2 18 -2 25 0 6 3 1 5 -13 5 -14 0 -19 -2 -12 -5z"/>
<path d="M7132 678 c-17 -17 -15 -35 4 -42 22 -8 56 12 52 32 -4 21 -39 27
-56 10z"/>
<path d="M4755 548 l-60 -63 63 60 c58 55 67 65 59 65 -1 0 -29 -28 -62 -62z"/>
<path d="M5769 531 c27 -17 3 -58 -64 -107 -66 -48 -81 -63 -45 -44 19 10 19
10 2 -20 -21 -36 -8 -64 29 -66 22 -1 22 -1 2 3 -13 2 -23 11 -23 19 0 18 21
38 147 142 92 75 94 77 64 80 -20 2 -41 -4 -58 -18 l-27 -21 -8 20 c-4 12 -13
21 -20 21 -10 0 -10 -2 1 -9z"/>
<path d="M6184 532 c7 -12 -49 -63 -164 -153 l-95 -74 36 -3 c31 -3 51 8 150
79 131 94 168 125 64 56 l-30 -21 21 25 c12 13 27 34 33 46 11 23 6 53 -11 53
-5 0 -7 -4 -4 -8z"/>
<path d="M6393 533 c22 -3 37 -10 37 -17 0 -8 -33 -36 -72 -64 -102 -70 -125
-99 -106 -134 11 -23 26 -23 24 -2 0 10 32 42 79 78 78 60 104 97 92 130 -5
12 -18 16 -49 14 l-43 -1 38 -4z"/>
<path d="M6953 519 c-18 -12 -33 -23 -33 -26 0 -2 5 -1 12 3 6 4 8 3 4 -4 -3
-6 -14 -10 -24 -9 -16 1 -102 -50 -102 -60 0 -3 11 2 25 11 72 46 75 45 18
-10 -47 -44 -63 -66 -63 -86 0 -15 4 -30 10 -33 5 -3 7 0 4 9 -4 10 30 42 107
103 174 137 161 122 114 122 -24 1 -53 -8 -72 -20z"/>
<path d="M7327 521 c-2 -10 -62 -64 -132 -120 l-128 -101 39 0 c31 0 54 10
109 51 39 27 78 60 88 72 10 12 15 16 11 8 -5 -9 -3 -12 5 -7 6 4 9 11 6 15
-2 5 2 17 10 27 16 21 20 60 6 68 -5 3 -11 -3 -14 -13z"/>
<path d="M7492 531 c-8 -5 7 -6 38 -3 70 6 64 -7 -35 -83 -91 -69 -117 -104
-96 -129 7 -9 19 -16 25 -16 7 0 7 3 -1 8 -18 11 -3 28 83 90 78 57 104 93 88
120 -12 19 -81 28 -102 13z"/>
<path d="M9615 521 c-73 -26 -129 -56 -198 -108 -68 -49 -87 -66 -46 -40 l27
16 -1 -34 c-2 -87 74 -84 222 9 39 25 41 25 31 6 -6 -12 -10 -33 -8 -48 2 -22
8 -27 33 -29 27 -2 28 -1 6 5 -14 4 -26 13 -28 19 -2 6 53 59 122 117 l126
106 -39 0 c-27 0 -45 -6 -58 -21 l-18 -20 -8 20 c-4 12 -15 21 -25 21 -15 0
-15 -1 2 -14 18 -13 18 -15 2 -39 -24 -37 -111 -101 -201 -147 -108 -56 -159
-52 -126 9 22 41 198 160 270 182 24 7 24 7 -5 7 -16 0 -53 -7 -80 -17z"/>
<path d="M10494 532 c4 -7 -17 -29 -50 -54 -94 -71 -134 -109 -140 -134 -8
-31 12 -54 45 -53 24 2 24 2 3 6 -34 7 -24 32 28 71 110 81 141 113 138 140
-2 14 -9 28 -17 30 -8 3 -11 0 -7 -6z"/>
<path d="M10717 519 c-15 -11 -24 -26 -21 -31 4 -7 2 -8 -4 -4 -9 5 -182 -103
-217 -137 -24 -23 57 26 128 77 42 31 77 54 77 52 0 -3 -64 -58 -142 -123
-102 -86 -155 -123 -192 -135 -40 -14 -44 -16 -16 -12 l35 5 -50 -46 c-63 -59
-161 -129 -200 -144 l-30 -11 30 6 c47 8 169 82 264 158 47 39 102 75 121 82
19 7 27 13 17 14 -11 0 44 52 137 131 86 72 156 132 156 135 0 13 -69 0 -93
-17z"/>
<path d="M7181 494 c-67 -37 -209 -129 -226 -147 -15 -15 10 0 93 55 40 27
105 67 145 88 39 22 68 40 62 40 -5 0 -39 -16 -74 -36z"/>
<path d="M10365 502 c-27 -15 -86 -52 -130 -82 -44 -30 -107 -69 -140 -87 -33
-18 -56 -33 -52 -33 16 0 94 44 182 104 50 33 117 75 150 93 33 18 56 33 50
33 -5 0 -32 -13 -60 -28z"/>
<path d="M6054 504 c-18 -14 -18 -14 6 -3 31 14 36 19 24 19 -6 0 -19 -7 -30
-16z"/>
<path d="M6254 484 c-18 -14 -18 -15 4 -4 12 6 22 13 22 15 0 8 -5 6 -26 -11z"/>
<path d="M4645 454 c-30 -27 -32 -31 -9 -16 28 19 62 53 53 52 -2 -1 -22 -17
-44 -36z"/>
<path d="M4975 438 l-50 -53 53 50 c48 46 57 55 49 55 -1 0 -25 -24 -52 -52z"/>
<path d="M5944 439 c-71 -46 -124 -86 -84 -63 21 11 164 104 169 110 15 15
-17 -3 -85 -47z"/>
<path d="M7384 474 c-18 -14 -18 -15 4 -4 12 6 22 13 22 15 0 8 -5 6 -26 -11z"/>
<path d="M8130 463 c-43 -15 -53 -77 -17 -111 28 -26 89 -52 119 -51 20 1 21
2 3 6 -51 11 -83 25 -103 44 -31 28 -28 43 7 36 31 -6 71 15 71 38 0 15 -38
46 -55 44 -5 0 -17 -3 -25 -6z"/>
<path d="M4132 414 c-17 -12 -22 -24 -20 -46 4 -39 40 -67 93 -73 l40 -5 -39
10 c-45 12 -66 26 -66 46 0 9 11 14 29 14 16 0 35 7 42 16 11 14 10 19 -10 35
-28 23 -40 24 -69 3z"/>
<path d="M6466 379 c-32 -21 -81 -47 -110 -58 -28 -11 -44 -20 -35 -20 22 -1
147 63 184 93 43 36 29 31 -39 -15z"/>
<path d="M7649 399 l-24 -20 28 17 c15 9 27 18 27 20 0 8 -8 4 -31 -17z"/>
<path d="M9862 396 c-46 -33 -53 -43 -14 -20 19 10 38 25 44 32 15 17 8 14
-30 -12z"/>
<path d="M10800 399 c-22 -18 -22 -19 -3 -10 12 6 25 16 28 21 9 15 3 12 -25
-11z"/>
<path d="M4544 384 c-18 -14 -18 -15 4 -4 12 6 22 13 22 15 0 8 -5 6 -26 -11z"/>
<path d="M7565 350 c-27 -17 -46 -30 -41 -30 11 0 96 49 96 55 0 7 0 7 -55
-25z"/>
<path d="M10738 364 c-38 -20 -36 -28 2 -9 17 9 30 18 30 20 0 7 -1 6 -32 -11z"/>
<path d="M5604 354 c-18 -14 -18 -15 4 -4 12 6 22 13 22 15 0 8 -5 6 -26 -11z"/>
<path d="M4480 350 c-9 -6 -10 -10 -3 -10 6 0 15 5 18 10 8 12 4 12 -15 0z"/>
<path d="M9314 344 c-18 -14 -18 -15 4 -4 12 6 22 13 22 15 0 8 -5 6 -26 -11z"/>
<path d="M9755 330 c-27 -17 -46 -30 -41 -30 11 0 96 49 96 55 0 7 0 7 -55
-25z"/>
<path d="M5784 334 c-18 -14 -18 -15 4 -4 12 6 22 13 22 15 0 8 -5 6 -26 -11z"/>
<path d="M10430 325 c-14 -8 -20 -14 -14 -15 5 0 19 7 30 15 24 18 16 19 -16
0z"/>
<path d="M4405 320 c-13 -6 -15 -9 -5 -9 8 0 22 4 30 9 18 12 2 12 -25 0z"/>
<path d="M7475 310 c-13 -6 -15 -9 -5 -9 8 0 22 4 30 9 18 12 2 12 -25 0z"/>
<path d="M9210 300 c-21 -7 -21 -8 -5 -9 11 0 27 4 35 9 18 11 5 11 -30 0z"/>
<path d="M10610 300 c-8 -5 -10 -10 -5 -10 6 0 17 5 25 10 8 5 11 10 5 10 -5
0 -17 -5 -25 -10z"/>
<path d="M4303 293 c9 -2 23 -2 30 0 6 3 -1 5 -18 5 -16 0 -22 -2 -12 -5z"/>
<path d="M6828 293 c7 -3 16 -2 19 1 4 3 -2 6 -13 5 -11 0 -14 -3 -6 -6z"/>
<path d="M10555 280 c-13 -6 -15 -9 -5 -9 8 0 22 4 30 9 18 12 2 12 -25 0z"/>
<path d="M10189 166 c-136 -59 -203 -112 -183 -144 7 -10 25 -18 45 -18 31 -2
32 -1 4 3 -16 2 -34 8 -38 13 -27 25 65 93 197 147 44 18 74 33 66 33 -8 0
-49 -15 -91 -34z"/>
</g>
</svg>
